<?xml version="1.0" standalone="no"?><!DOCTYPE svg PUBLIC "-//W3C//DTD SVG 1.1//EN" "http://www.w3.org/Graphics/SVG/1.1/DTD/svg11.dtd"><svg t="1538526062789" class="icon" style="" viewBox="0 0 1331 1024" version="1.1" xmlns="http://www.w3.org/2000/svg" p-id="6773" xmlns:xlink="http://www.w3.org/1999/xlink" width="166.375" height="128"><defs><style type="text/css"></style></defs><path d="M1239.04 450.56v481.28H92.16V450.56h1146.88m35.84-92.16H56.32C25.6 358.4 0 384 0 414.72v552.96c0 30.72 25.6 56.32 56.32 56.32h1218.56c30.72 0 56.32-25.6 56.32-56.32V414.72c0-30.72-25.6-56.32-56.32-56.32z" fill="#F7A404" p-id="6774"></path><path d="M302.08 558.08l-71.68 225.28h46.08l15.36-56.32h71.68l15.36 56.32h46.08l-71.68-225.28h-51.2z m-5.12 133.12L307.2 665.6c5.12-25.6 15.36-51.2 20.48-76.8 5.12 25.6 10.24 51.2 20.48 76.8l5.12 25.6H296.96z m225.28 61.44c-25.6 0-40.96-20.48-40.96-51.2s15.36-56.32 40.96-56.32c10.24 0 15.36 5.12 25.6 10.24l20.48-30.72c-10.24-10.24-25.6-20.48-46.08-20.48-46.08 0-87.04 30.72-87.04 92.16 0 56.32 35.84 92.16 81.92 92.16 20.48 0 40.96-5.12 56.32-20.48l-15.36-30.72c-15.36 10.24-25.6 15.36-35.84 15.36z m153.6 0c-15.36 0-20.48-10.24-20.48-30.72v-76.8h40.96V614.4h-40.96v-46.08H614.4l-5.12 46.08h-25.6v35.84h25.6v76.8c0 40.96 15.36 66.56 56.32 66.56 15.36 0 25.6-5.12 35.84-5.12l-5.12-30.72c-10.24-5.12-15.36-5.12-20.48-5.12z m51.2 30.72h40.96V614.4h-40.96v168.96z m20.48-245.76c-15.36 0-25.6 10.24-25.6 25.6s10.24 25.6 25.6 25.6 25.6-10.24 25.6-25.6-10.24-25.6-25.6-25.6z m148.48 158.72c-5.12 15.36-10.24 35.84-15.36 51.2-5.12-15.36-10.24-35.84-15.36-51.2l-25.6-81.92h-46.08l56.32 174.08h51.2l56.32-174.08h-40.96l-20.48 81.92z m230.4-5.12c0-46.08-25.6-81.92-71.68-81.92-40.96 0-76.8 35.84-76.8 92.16s35.84 92.16 81.92 92.16c20.48 0 40.96-5.12 56.32-20.48l-15.36-25.6c-10.24 10.24-25.6 10.24-35.84 10.24-25.6 0-40.96-15.36-46.08-40.96h102.4c0-10.24 5.12-15.36 5.12-25.6z m-107.52-10.24c5.12-25.6 20.48-35.84 35.84-35.84 20.48 0 30.72 15.36 30.72 35.84h-66.56z" fill="#F7A404" p-id="6775"></path><path d="M645.12 51.2c-56.32 0-102.4 46.08-102.4 107.52 0 56.32 46.08 107.52 102.4 107.52s102.4-46.08 102.4-107.52c0-61.44-46.08-107.52-102.4-107.52z" fill="#F7A404" p-id="6776"></path><path d="M645.12 189.44l271.36 163.84-527.36 15.36 256-179.2m-5.12-92.16L138.24 450.56 1177.6 424.96 640 97.28z" fill="#F7A404" p-id="6777"></path></svg>