<?xml version="1.0" standalone="no"?><!DOCTYPE svg PUBLIC "-//W3C//DTD SVG 1.1//EN" "http://www.w3.org/Graphics/SVG/1.1/DTD/svg11.dtd"><svg t="1538465832832" class="icon" style="" viewBox="0 0 1024 1024" version="1.1" xmlns="http://www.w3.org/2000/svg" p-id="3159" xmlns:xlink="http://www.w3.org/1999/xlink" width="128" height="128"><defs><style type="text/css"></style></defs><path d="M404.245594 224.640201l-107.756413 0c-39.678394 0-71.834933 32.170586-71.834933 71.84296l0 107.760426c0 39.678394 32.158545 71.838946 71.834933 71.838946l107.756413 0c39.670367 0 71.838946-32.158545 71.838946-71.838946l0-107.760426C476.084541 256.810787 443.915961 224.640201 404.245594 224.640201L404.245594 224.640201z" p-id="3160"></path><path d="M727.510818 224.640201l-107.756413 0c-39.678394 0-71.834933 32.170586-71.834933 71.84296l0 107.760426c0 39.678394 32.156538 71.838946 71.834933 71.838946l107.756413 0c39.678394 0 71.834933-32.158545 71.834933-71.838946l0-107.760426C799.345751 256.810787 767.189213 224.640201 727.510818 224.640201L727.510818 224.640201z" p-id="3161"></path><path d="M404.245594 547.919473l-107.756413 0c-39.678394 0-71.834933 32.158545-71.834933 71.838946l0 107.76444c0 39.66836 32.158545 71.838946 71.834933 71.838946l107.756413 0c39.670367 0 71.838946-32.170586 71.838946-71.838946l0-107.76444C476.084541 580.078018 443.915961 547.919473 404.245594 547.919473L404.245594 547.919473z" p-id="3162"></path><path d="M727.510818 547.919473l-107.756413 0c-39.678394 0-71.834933 32.158545-71.834933 71.838946l0 107.76444c0 39.66836 32.156538 71.838946 71.834933 71.838946l107.756413 0c39.678394 0 71.834933-32.170586 71.834933-71.838946l0-107.76444C799.345751 580.078018 767.189213 547.919473 727.510818 547.919473L727.510818 547.919473z" p-id="3163"></path><path d="M727.510818 547.919473" p-id="3164"></path><path d="M832 0.004014 192 0.004014c-106.0365 0-191.995986 85.9635-191.995986 191.997993l0 639.993979c0 106.0365 85.959486 192 191.995986 192l640 0c106.0365 0 191.995986-85.9635 191.995986-192L1023.995986 192.002007C1023.995986 85.967513 938.0365 0.004014 832 0.004014zM896 831.997993c0 35.343493-28.658514 63.997993-64 63.997993L192 895.995986c-35.343493 0-63.995986-28.6545-63.995986-63.997993L128.004014 192.002007c0-35.347507 28.652493-63.997993 63.995986-63.997993l640 0c35.341486 0 64 28.650486 64 63.997993L896 831.997993z" p-id="3165"></path></svg>