<?xml version="1.0" standalone="no"?><!DOCTYPE svg PUBLIC "-//W3C//DTD SVG 1.1//EN" "http://www.w3.org/Graphics/SVG/1.1/DTD/svg11.dtd"><svg t="1538465859822" class="icon" style="" viewBox="0 0 1024 1024" version="1.1" xmlns="http://www.w3.org/2000/svg" p-id="3279" xmlns:xlink="http://www.w3.org/1999/xlink" width="128" height="128"><defs><style type="text/css"></style></defs><path d="M320.010606 0 128.017211 0c-70.69692 0-127.990276 57.319293-127.990276 128.004242l0 191.99938c0 70.69692 57.297346 127.998257 127.990276 127.998257l191.993395 0c70.682954 0 127.998257-57.297346 127.998257-127.998257L448.008862 128.004242C448.008862 57.319293 390.691565 0 320.010606 0L320.010606 0z" p-id="3280"></path><path d="M895.982809 0 703.989414 0c-70.69692 0-127.990276 57.319293-127.990276 128.004242l0 191.99938c0 70.69692 57.293356 127.998257 127.990276 127.998257l191.993395 0c70.69692 0 127.990276-57.297346 127.990276-127.998257L1023.973085 128.004242C1023.973085 57.319293 966.677734 0 895.982809 0L895.982809 0z" p-id="3281"></path><path d="M320.010606 575.996146 128.017211 575.996146c-70.69692 0-127.990276 57.297346-127.990276 127.998257l0 192.007361c0 70.678964 57.297346 127.998257 127.990276 127.998257l191.993395 0c70.682954 0 127.998257-57.319293 127.998257-127.998257l0-192.007361C448.008862 633.295487 390.691565 575.996146 320.010606 575.996146L320.010606 575.996146z" p-id="3282"></path><path d="M895.982809 575.996146 703.989414 575.996146c-70.69692 0-127.990276 57.297346-127.990276 127.998257l0 192.007361c0 70.678964 57.293356 127.998257 127.990276 127.998257l191.993395 0c70.69692 0 127.990276-57.319293 127.990276-127.998257l0-192.007361C1023.973085 633.295487 966.677734 575.996146 895.982809 575.996146L895.982809 575.996146z" p-id="3283"></path><path d="M895.982809 575.996146" p-id="3284"></path></svg>