<?xml version="1.0" standalone="no"?><!DOCTYPE svg PUBLIC "-//W3C//DTD SVG 1.1//EN" "http://www.w3.org/Graphics/SVG/1.1/DTD/svg11.dtd"><svg t="1538465893249" class="icon" style="" viewBox="0 0 1024 1024" version="1.1" xmlns="http://www.w3.org/2000/svg" p-id="3628" xmlns:xlink="http://www.w3.org/1999/xlink" width="128" height="128"><defs><style type="text/css"></style></defs><path d="M128 85.333333h170.666667a42.666667 42.666667 0 0 1 42.666666 42.666667v170.666667a42.666667 42.666667 0 0 1-42.666666 42.666666H128a42.666667 42.666667 0 0 1-42.666667-42.666666V128a42.666667 42.666667 0 0 1 42.666667-42.666667z m298.666667 0h170.666666a42.666667 42.666667 0 0 1 42.666667 42.666667v170.666667a42.666667 42.666667 0 0 1-42.666667 42.666666h-170.666666a42.666667 42.666667 0 0 1-42.666667-42.666666V128a42.666667 42.666667 0 0 1 42.666667-42.666667z m298.666666 0h170.666667a42.666667 42.666667 0 0 1 42.666667 42.666667v170.666667a42.666667 42.666667 0 0 1-42.666667 42.666666h-170.666667a42.666667 42.666667 0 0 1-42.666666-42.666666V128a42.666667 42.666667 0 0 1 42.666666-42.666667zM128 384h170.666667a42.666667 42.666667 0 0 1 42.666666 42.666667v170.666666a42.666667 42.666667 0 0 1-42.666666 42.666667H128a42.666667 42.666667 0 0 1-42.666667-42.666667v-170.666666a42.666667 42.666667 0 0 1 42.666667-42.666667z m298.666667 0h170.666666a42.666667 42.666667 0 0 1 42.666667 42.666667v170.666666a42.666667 42.666667 0 0 1-42.666667 42.666667h-170.666666a42.666667 42.666667 0 0 1-42.666667-42.666667v-170.666666a42.666667 42.666667 0 0 1 42.666667-42.666667z m298.666666 0h170.666667a42.666667 42.666667 0 0 1 42.666667 42.666667v170.666666a42.666667 42.666667 0 0 1-42.666667 42.666667h-170.666667a42.666667 42.666667 0 0 1-42.666666-42.666667v-170.666666a42.666667 42.666667 0 0 1 42.666666-42.666667zM128 682.666667h170.666667a42.666667 42.666667 0 0 1 42.666666 42.666666v170.666667a42.666667 42.666667 0 0 1-42.666666 42.666667H128a42.666667 42.666667 0 0 1-42.666667-42.666667v-170.666667a42.666667 42.666667 0 0 1 42.666667-42.666666z m298.666667 0h170.666666a42.666667 42.666667 0 0 1 42.666667 42.666666v170.666667a42.666667 42.666667 0 0 1-42.666667 42.666667h-170.666666a42.666667 42.666667 0 0 1-42.666667-42.666667v-170.666667a42.666667 42.666667 0 0 1 42.666667-42.666666z m298.666666 0h170.666667a42.666667 42.666667 0 0 1 42.666667 42.666666v170.666667a42.666667 42.666667 0 0 1-42.666667 42.666667h-170.666667a42.666667 42.666667 0 0 1-42.666666-42.666667v-170.666667a42.666667 42.666667 0 0 1 42.666666-42.666666z" p-id="3629"></path></svg>