<?xml version="1.0" standalone="no"?><!DOCTYPE svg PUBLIC "-//W3C//DTD SVG 1.1//EN" "http://www.w3.org/Graphics/SVG/1.1/DTD/svg11.dtd"><svg t="1538465867463" class="icon" style="" viewBox="0 0 1024 1024" version="1.1" xmlns="http://www.w3.org/2000/svg" p-id="3398" xmlns:xlink="http://www.w3.org/1999/xlink" width="128" height="128"><defs><style type="text/css"></style></defs><path d="M417.546 746.99V605.773H276.327c-77.992 0-141.217 63.225-141.217 141.217s63.225 141.217 141.217 141.217 141.219-63.224 141.219-141.217z m70.608 0c0 116.99-94.838 211.826-211.827 211.826S64.501 863.98 64.501 746.99c0-116.988 94.838-211.826 211.826-211.826h211.827V746.99z m117.681 0V605.773h141.217c77.993 0 141.218 63.225 141.218 141.217s-63.225 141.217-141.218 141.217c-77.99 0.001-141.217-63.224-141.217-141.217z m-70.608 0c0 116.99 94.838 211.826 211.826 211.826 116.989 0 211.827-94.837 211.827-211.826 0-116.988-94.838-211.826-211.827-211.826H535.227V746.99zM417.546 276.265v141.217H276.327c-77.992 0-141.217-63.225-141.217-141.217s63.225-141.217 141.217-141.217 141.219 63.224 141.219 141.217z m70.608 0c0-116.99-94.838-211.826-211.827-211.826S64.501 159.276 64.501 276.265s94.838 211.826 211.826 211.826h211.827V276.265z m117.681 0v141.217h141.217c77.993 0 141.218-63.225 141.218-141.217s-63.225-141.217-141.218-141.217c-77.99-0.001-141.217 63.224-141.217 141.217z m-70.608 0c0-116.99 94.838-211.826 211.826-211.826 116.989 0 211.827 94.838 211.827 211.826s-94.838 211.826-211.827 211.826H535.227V276.265z" p-id="3399"></path></svg>