<?xml version="1.0" standalone="no"?><!DOCTYPE svg PUBLIC "-//W3C//DTD SVG 1.1//EN" "http://www.w3.org/Graphics/SVG/1.1/DTD/svg11.dtd"><svg t="1538537094539" class="icon" style="" viewBox="0 0 1024 1024" version="1.1" xmlns="http://www.w3.org/2000/svg" p-id="13810" xmlns:xlink="http://www.w3.org/1999/xlink" width="128" height="128"><defs><style type="text/css"></style></defs><path d="M870.4 460.8c28.16 0 51.2-23.04 51.2-51.2V153.6c0-28.16-23.04-51.2-51.2-51.2H614.4c-28.16 0-51.2 23.04-51.2 51.2v51.2h-102.4V153.6c0-28.16-23.04-51.2-51.2-51.2H153.6c-28.16 0-51.2 23.04-51.2 51.2v256c0 28.16 23.04 51.2 51.2 51.2h51.2v102.4H153.6c-28.16 0-51.2 23.04-51.2 51.2v256c0 28.16 23.04 51.2 51.2 51.2h256c28.16 0 51.2-23.04 51.2-51.2v-51.2h102.4v51.2c0 28.16 23.04 51.2 51.2 51.2h256c28.16 0 51.2-23.04 51.2-51.2V614.4c0-28.16-23.04-51.2-51.2-51.2h-51.2v-102.4h51.2zM153.6 153.6h256v256H153.6V153.6z m256 716.8H153.6V614.4h256v256z m460.8 0H614.4V614.4h256v256z m-102.4-307.2h-153.6c-28.16 0-51.2 23.04-51.2 51.2v153.6h-102.4v-153.6c0-28.16-23.04-51.2-51.2-51.2h-153.6v-102.4h153.6c28.16 0 51.2-23.04 51.2-51.2v-153.6h102.4v153.6c0 28.16 23.04 51.2 51.2 51.2h153.6v102.4z" p-id="13811"></path></svg>