<?xml version="1.0" standalone="no"?><!DOCTYPE svg PUBLIC "-//W3C//DTD SVG 1.1//EN" "http://www.w3.org/Graphics/SVG/1.1/DTD/svg11.dtd"><svg t="1538447419006" class="icon" style="" viewBox="0 0 1024 1024" version="1.1" xmlns="http://www.w3.org/2000/svg" p-id="1089" xmlns:xlink="http://www.w3.org/1999/xlink" width="200" height="200"><defs><style type="text/css"></style></defs><path d="M512 1024C229.6832 1024 0 794.3168 0 512S229.6832 0 512 0s512 229.6832 512 512-229.6832 512-512 512z m0-962.56C263.55712 61.44 61.44 263.55712 61.44 512s202.11712 450.56 450.56 450.56 450.56-202.11712 450.56-450.56S760.44288 61.44 512 61.44z" fill="" p-id="1090"></path><path d="M591.40096 786.82112a30.0544 30.0544 0 0 1-11.776-19.59936l-3.9936-25.51808H448.3584l-4.00384 25.50784s-1.10592 11.76576-11.75552 19.6096c-10.63936 7.84384-19.03616 14.56128-10.63936 15.67744 8.0896 1.0752 84.41856 0.1024 90.04032 0 5.64224 0.1024 81.95072 1.0752 90.04032 0 8.37632-1.11616-0.01024-7.8336-10.63936-15.67744zM368.64 582.89152c34.00704-0.24576 38.23616-8.448 49.31584-42.58816 20.43904-53.87264 112.4864 14.10048 55.43936 37.70368-57.04704 23.6032-138.76224 5.13024-104.7552 4.88448z" fill="" p-id="1091"></path><path d="M717.27104 227.87072c-16.4864-13.29152-43.8272-6.74816-61.05088 14.62272L481.78176 490.32192c-17.22368 21.36064-17.13152 17.28512-0.64512 30.5664 16.49664 13.29152 12.52352 14.25408 29.73696-7.1168l205.07648-223.1296c17.23392-21.38112 17.8176-49.47968 1.32096-62.7712z m-44.8512 29.66528s-2.54976-2.9696-11.04896-9.76896c12.73856-20.80768 37.7856-16.98816 37.7856-16.98816-23.7568 14.0288-26.73664 26.75712-26.73664 26.75712z" fill="" p-id="1092"></path><path d="M794.624 311.62368h-76.6976l-33.88416 36.864h98.304v294.90176h-540.672V348.48768h314.5216l25.9584-36.864H229.376a24.576 24.576 0 0 0-24.576 24.576v356.352a24.576 24.576 0 0 0 24.576 24.56576h565.248a24.576 24.576 0 0 0 24.576-24.56576v-356.352a24.576 24.576 0 0 0-24.576-24.576z" fill="" p-id="1093"></path></svg>