<?xml version="1.0" standalone="no"?><!DOCTYPE svg PUBLIC "-//W3C//DTD SVG 1.1//EN" "http://www.w3.org/Graphics/SVG/1.1/DTD/svg11.dtd"><svg t="1538475523217" class="icon" style="" viewBox="0 0 1024 1024" version="1.1" xmlns="http://www.w3.org/2000/svg" p-id="5000" xmlns:xlink="http://www.w3.org/1999/xlink" width="128" height="128"><defs><style type="text/css"></style></defs><path d="M688.608675 1008.246154H327.45334C151.20566 1008.246154 7.815862 864.856356 7.815862 688.593044V327.468972C7.815862 151.221291 151.20566 7.815862 327.45334 7.815862h361.155335C864.856356 7.815862 1008.246154 151.221291 1008.246154 327.468972v361.124072C1008.246154 864.856356 864.856356 1008.246154 688.608675 1008.246154z m256.547844-680.777182c0-141.68594-114.861903-256.547843-256.547844-256.547843H327.45334c-141.68594 0-256.547843 114.861903-256.547843 256.547843v361.124072c0 141.717204 114.861903 256.579106 256.547843 256.579106h361.155335c141.68594 0 256.547843-114.861903 256.547844-256.579106V327.468972zM690.765853 889.288739H325.296162c-109.468958 0-198.522886-89.053928-198.522886-198.522886a21.024668 21.024668 0 1 1 42.064968 0c0 86.287113 70.186438 156.47355 156.457918 156.473551h365.469691c86.271481 0 156.457919-70.186438 156.457919-156.473551V325.296162a21.024668 21.024668 0 1 1 42.064967 0v365.469691c0 109.468958-89.053928 198.522886-198.522886 198.522886z m-142.983373-159.302892A39.782736 39.782736 0 0 1 508.031008 769.752951a39.782736 39.782736 0 0 1-39.767104-39.767104A39.782736 39.782736 0 0 1 508.031008 690.234375a39.782736 39.782736 0 0 1 39.751472 39.751472zM385.96288 428.59059c0 11.598739-9.410297 21.0403-21.024667 21.040299a21.0403 21.0403 0 0 1-21.024668-21.040299c0-90.492046 73.625417-164.133095 164.117463-164.133095 90.507678 0 164.117463 73.641049 164.117463 164.133095 0 60.354084-38.141405 119.426366-90.726522 140.466666-46.144847 18.445434-52.366273 35.984227-52.366273 50.70931a21.0403 21.0403 0 1 1-42.049336 0c0-52.225588 44.972468-76.251546 78.799517-89.772987 36.640759-14.646925 64.277646-58.243801 64.277646-101.402989 0-67.325832-54.742295-122.068127-122.052495-122.068128s-122.068127 54.742295-122.068128 122.068128zM791.371625 205.557162a156.582972 156.582972 0 0 0-100.605772-36.703287H325.296162c-86.271481 0-156.457919 70.170806-156.457918 156.442287v202.884137a21.0403 21.0403 0 0 1-42.064968 0V325.296162c0-109.453327 89.053928-198.507254 198.522886-198.507254h365.469691c46.629431 0 91.961428 16.553995 127.679916 46.598167a21.024668 21.024668 0 1 1-27.074144 32.170087z" p-id="5001"></path></svg>