<?xml version="1.0" standalone="no"?><!DOCTYPE svg PUBLIC "-//W3C//DTD SVG 1.1//EN" "http://www.w3.org/Graphics/SVG/1.1/DTD/svg11.dtd"><svg t="1538553002827" class="icon" style="" viewBox="0 0 1024 1024" version="1.1" xmlns="http://www.w3.org/2000/svg" p-id="15123" xmlns:xlink="http://www.w3.org/1999/xlink" width="128" height="128"><defs><style type="text/css"></style></defs><path d="M652.196 677.258l-36.725-36.725c-24.895 20.066-55.74 33.047-89.471 35.881v105.004c42.073 7.549 74 44.337 74 88.582 0 49.706-40.294 90-90 90s-90-40.294-90-90c0-45.637 33.968-83.34 78-89.207V676.414c-34.569-2.904-66.105-16.466-91.313-37.388l-38.622 38.622C376.87 690.933 382 706.868 382 724c0 46.392-37.608 84-84 84s-84-37.608-84-84 37.608-84 84-84c19.146 0 36.796 6.406 50.924 17.19l37.802-37.8c-21.326-24.855-35.383-56.13-38.875-90.526H240.423C232.528 570.509 195.942 602 152 602c-49.706 0-90-40.294-90-90s40.294-90 90-90c45.935 0 83.832 34.413 89.318 78.864H347.37c2.322-34.849 15.465-66.737 36.097-92.335l-38.725-38.725C331.379 378.77 315.301 384 298 384c-46.392 0-84-37.608-84-84s37.608-84 84-84 84 37.608 84 84c0 18.98-6.295 36.489-16.91 50.554l37.73 37.73c25.815-22.798 58.82-37.643 95.18-40.698V243.207c-44.032-5.867-78-43.57-78-89.207 0-49.706 40.294-90 90-90s90 40.294 90 90c0 44.245-31.927 81.033-74 88.582v105.004c35.524 2.984 67.847 17.224 93.39 39.14l35.8-35.802C644.407 336.796 638 319.146 638 300c0-46.392 37.608-84 84-84s84 37.608 84 84-37.608 84-84 84c-17.132 0-33.067-5.129-46.352-13.935l-36.622 36.622c21.499 25.902 35.226 58.487 37.604 94.177h102.052C784.168 456.413 822.065 422 868 422c49.706 0 90 40.294 90 90s-40.294 90-90 90c-43.942 0-80.528-31.491-88.423-73.136H676.15c-3.576 35.228-18.235 67.18-40.434 92.316l35.73 35.73C685.512 646.295 703.02 640 722 640c46.392 0 84 37.608 84 84s-37.608 84-84 84-84-37.608-84-84c0-17.3 5.23-33.38 14.196-46.742zM512 618c58.542 0 106-47.458 106-106s-47.458-106-106-106-106 47.458-106 106 47.458 106 106 106z" p-id="15124"></path></svg>