<?xml version="1.0" standalone="no"?><!DOCTYPE svg PUBLIC "-//W3C//DTD SVG 1.1//EN" "http://www.w3.org/Graphics/SVG/1.1/DTD/svg11.dtd"><svg t="1538618379051" class="icon" style="" viewBox="0 0 1024 1024" version="1.1" xmlns="http://www.w3.org/2000/svg" p-id="18358" xmlns:xlink="http://www.w3.org/1999/xlink" width="128" height="128"><defs><style type="text/css"></style></defs><path d="M1012.23424 485.189632 556.5952 35.34848c0 0-18.071552-21.00224-45.633536-21.00224-29.874176 0-45.582336 21.020672-45.582336 21.020672L9.73824 485.234688c-12.61568 12.43136-12.61568 32.569344 0 45.0048 12.53376 12.40064 30.265344 2.902016 42.846208-9.48224l30.560256-30.203904L512.27648 74.825728l457.1136 449.45408c12.531712 8.0896 31.895552 16.777216 42.846208 5.937152C1024.847872 517.804032 1024.847872 497.641472 1012.23424 485.189632L1012.23424 485.189632zM848.40448 464.484352c-14.002176 0-25.407488 11.186176-25.454592 25.010176l0 0.0512 0 0.1024 0 419.452928c0 27.789312-22.833152 50.313216-50.917376 50.313216l-113.235968 0L658.796544 716.77952c0-52.772864-43.272192-95.514624-96.735232-95.514624l-102.146048 0c-53.46304 0-96.735232 42.74176-96.735232 95.514624l0 242.638848-113.229824 0c-28.090368 0-50.917376-22.523904-50.917376-50.313216L199.032832 489.568256c-0.024576-13.869056-11.42784-25.083904-25.430016-25.083904-14.053376 0-25.43616 11.214848-25.48736 25.083904l0 424.579072c0 52.783104 43.29472 95.524864 96.735232 95.524864l169.220096 0 0-287.86688c0-27.779072 22.827008-50.284544 50.917376-50.284544l92.002304 0c28.084224 0 50.919424 22.505472 50.919424 50.284544l0 287.86688 169.220096 0c53.434368 0 96.735232-42.74176 96.735232-95.524864l0-424.6528C873.781248 475.67872 862.43328 464.484352 848.40448 464.484352L848.40448 464.484352zM848.40448 464.484352" p-id="18359"></path></svg>