<?xml version="1.0" standalone="no"?><!DOCTYPE svg PUBLIC "-//W3C//DTD SVG 1.1//EN" "http://www.w3.org/Graphics/SVG/1.1/DTD/svg11.dtd"><svg t="1538448813831" class="icon" style="" viewBox="0 0 1024 1024" version="1.1" xmlns="http://www.w3.org/2000/svg" p-id="8581" xmlns:xlink="http://www.w3.org/1999/xlink" width="128" height="128"><defs><style type="text/css"></style></defs><path d="M580.16 748.416c-15.530667 8.384-35.413333 12.821333-59.221333 13.76l0-167.765333L503.04 594.410667l0 167.786667c-23.850667-0.938667-43.776-5.397333-59.285333-13.781333-17.429333-9.408-28.373333-22.869333-32.853333-40.362667l-17.152 0c3.050667 21.76 15.573333 39.552 37.674667 53.461333 22.037333 13.888 48.917333 20.821333 80.512 20.821333 31.701333 0 58.581333-6.912 80.64-20.821333 22.08-13.888 34.624-31.701333 37.674667-53.461333l-17.173333 0C608.618667 725.546667 597.674667 739.008 580.16 748.416z" p-id="8582"></path><path d="M647.061333 414.997333 612.394667 449.6 577.770667 414.997333 569.514667 423.338667 604.117333 457.941333 569.514667 492.544 577.770667 500.885333 612.48 466.261333 647.061333 500.885333 655.317333 492.544 620.736 457.941333 655.317333 423.338667Z" p-id="8583"></path><path d="M446.229333 500.885333 454.506667 492.544 419.882667 457.941333 454.506667 423.338667 446.229333 414.997333 411.541333 449.6 376.96 414.997333 368.682667 423.338667 403.285333 457.941333 368.682667 492.544 376.96 500.885333 411.626667 466.261333Z" p-id="8584"></path><path d="M512 64C264.576 64 64 264.576 64 512s200.576 448 448 448c247.424 0 448-200.576 448-448S759.424 64 512 64zM735.872 671.786667c0 123.626667-100.224 223.872-223.872 223.872S288.128 795.413333 288.128 671.786667c0-35.84 8.448-69.696 23.466667-99.712-31.744-27.861333-51.904-68.608-51.904-114.176 0-83.882667 68.010667-151.893333 151.914667-151.893333 38.549333 0 73.621333 14.485333 100.416 38.122667 26.794667-23.637333 61.866667-38.122667 100.416-38.122667 83.904 0 151.893333 68.010667 151.893333 151.893333 0 45.568-20.138667 86.314667-51.904 114.176C727.402667 602.112 735.872 635.968 735.872 671.786667z" p-id="8585"></path></svg>