<?xml version="1.0" standalone="no"?><!DOCTYPE svg PUBLIC "-//W3C//DTD SVG 1.1//EN" "http://www.w3.org/Graphics/SVG/1.1/DTD/svg11.dtd"><svg t="1538616830569" class="icon" style="" viewBox="0 0 1024 1024" version="1.1" xmlns="http://www.w3.org/2000/svg" p-id="16562" xmlns:xlink="http://www.w3.org/1999/xlink" width="128" height="128"><defs><style type="text/css"></style></defs><path d="M743.536749 461.602147c-120.162287 0-221.98065 77.210661-261.225142 184.653642h-49.343237a10.993571 10.993571 0 0 0-10.993571 11.121403v59.761563c0 6.135947 4.92154 11.121403 10.993571 11.121404h32.725048c-0.255664 4.857624-1.406154 9.5235-1.406154 14.508957 0 154.996567 125.275576 281.166968 279.249485 281.166968S1022.658402 897.701766 1022.658402 742.769116s-125.147744-281.166968-279.121653-281.166969z m0 498.801323c-119.203545 0-216.2282-97.5999-216.228201-217.634354s97.024655-217.634355 216.228201-217.634355c119.139629 0 216.100368 97.5999 216.100368 217.634355s-96.960739 217.634355-216.100368 217.634354z" p-id="16563"></path><path d="M63.085841 772.298358V369.754697H808.539433v79.19206h63.085201v-234.572124a126.809562 126.809562 0 0 0-126.170402-127.065227h-74.5901v-54.328693a31.510642 31.510642 0 1 0-62.957369 0v54.39261H263.782426V32.980713C263.782426 15.467699 249.656966 1.278322 232.271784 1.278322s-31.510642 14.189376-31.510642 31.702391v54.39261H126.234957A126.809562 126.809562 0 0 0 0.00064 214.374633v557.859809c0 70.052057 56.69359 127.065227 126.234317 127.065227h335.303914v-63.532613H126.234957a63.276949 63.276949 0 0 1-63.149116-63.468698z m63.149116-621.392422h74.526185v54.39261c0 17.513014 14.12546 31.766307 31.510642 31.766306s31.510642-14.189376 31.510642-31.766306v-54.39261h344.124337v54.39261c0 17.513014 14.12546 31.766307 31.510642 31.766306s31.510642-14.189376 31.510643-31.766306v-54.39261h74.5901a63.276949 63.276949 0 0 1 63.021285 63.532613v91.847451H63.085841V214.374633c0-35.026028 28.314837-63.468697 63.149116-63.468697z" p-id="16564"></path><path d="M272.986346 487.36034a13.614131 13.614131 0 0 0-13.550215-13.678048h-54.328694a13.678048 13.678048 0 0 0-13.550215 13.678048v54.648274c0 7.478185 6.135947 13.614131 13.550215 13.614131h54.328694a13.550215 13.550215 0 0 0 13.550215-13.614131v-54.648274zM434.821937 473.746208a12.847138 12.847138 0 0 0-12.847138 12.847138v56.246177c0 7.094688 5.75245 12.847138 12.847138 12.847138h55.926596c6.966856 0 12.591474-5.75245 12.591474-12.847138v-56.246177a12.719306 12.719306 0 0 0-12.591474-12.847138h-55.926596zM203.445618 646.255789a11.952313 11.952313 0 0 0-11.888396 12.016229v58.035828c0 6.583359 5.368953 12.016229 11.888396 12.016229h57.652332a11.952313 11.952313 0 0 0 11.888396-12.016229v-58.035828a11.888396 11.888396 0 0 0-11.888396-12.016229h-57.652332zM775.047391 738.934149V603.112415a31.638475 31.638475 0 0 0-31.510642-31.766307 31.638475 31.638475 0 0 0-31.574559 31.766307v163.305661l106.612072 100.667874a31.318894 31.318894 0 0 0 44.549529-1.406155 31.766307 31.766307 0 0 0-1.406155-44.869109l-86.670245-81.876537z" p-id="16565"></path></svg>