<?xml version="1.0" standalone="no"?><!DOCTYPE svg PUBLIC "-//W3C//DTD SVG 1.1//EN" "http://www.w3.org/Graphics/SVG/1.1/DTD/svg11.dtd"><svg t="1538470579474" class="icon" style="" viewBox="0 0 1024 1024" version="1.1" xmlns="http://www.w3.org/2000/svg" p-id="4286" xmlns:xlink="http://www.w3.org/1999/xlink" width="128" height="128"><defs><style type="text/css"></style></defs><path d="M832 1024H192c-106.048 0-192-86.016-192-192V192a192 192 0 0 1 192-192h640a192 192 0 0 1 192 192v640c0 105.984-85.952 192-192 192z m64-832a64 64 0 0 0-64-64H192a64 64 0 0 0-64 64v640c0 35.392 28.608 64 64 64h640c35.392 0 64-28.608 64-64V192z m-192 384h-128v128c0 35.392-28.608 64-64 64s-64-28.608-64-64v-128h-128a64 64 0 1 1 0-128h128v-128a64 64 0 1 1 128 0v128h128a64 64 0 1 1 0 128z" p-id="4287"></path></svg>