<?xml version="1.0" standalone="no"?><!DOCTYPE svg PUBLIC "-//W3C//DTD SVG 1.1//EN" "http://www.w3.org/Graphics/SVG/1.1/DTD/svg11.dtd"><svg t="1538564311553" class="icon" style="" viewBox="0 0 1024 1024" version="1.1" xmlns="http://www.w3.org/2000/svg" p-id="15865" xmlns:xlink="http://www.w3.org/1999/xlink" width="128" height="128"><defs><style type="text/css"></style></defs><path d="M868 255.1H570.4l-29.6-87.5c-8.2-24.4-31.1-40.8-56.8-40.8H158c-33.1 0-60 26.9-60 60v114.9c-1 4.3-1.5 8.7-1.5 13.3v519.6c0 33.1 26.9 60 60 60H868c33.1 0 60-26.9 60-60V315.1c0-33.2-26.9-60-60-60z m-720-68.2c0-5.5 4.5-10 10-10h326c4.3 0 8.1 2.7 9.5 6.8l23.8 70.4H148v-67.2z m730 647.7c0 5.5-4.5 10-10 10H156.5c-5.5 0-10-4.5-10-10V315.1c0-5.5 4.5-10 10-10H868c5.5 0 10 4.5 10 10v519.5z" p-id="15866"></path><path d="M456.3 390.2h-140c-16.6 0-30 13.4-30 30v100c0 16.6 13.4 30 30 30h140c16.6 0 30-13.4 30-30v-100c0-16.6-13.4-30-30-30z m-20 110h-100v-60h100v60zM706.3 390.2h-140c-16.6 0-30 13.4-30 30v100c0 16.6 13.4 30 30 30h140c16.6 0 30-13.4 30-30v-100c0-16.6-13.4-30-30-30z m-20 110h-100v-60h100v60zM456.3 600.2h-140c-16.6 0-30 13.4-30 30v100c0 16.6 13.4 30 30 30h140c16.6 0 30-13.4 30-30v-100c0-16.6-13.4-30-30-30z m-20 110h-100v-60h100v60zM706.3 600.2h-140c-16.6 0-30 13.4-30 30v100c0 16.6 13.4 30 30 30h140c16.6 0 30-13.4 30-30v-100c0-16.6-13.4-30-30-30z m-20 110h-100v-60h100v60z" p-id="15867"></path></svg>