<?xml version="1.0" standalone="no"?><!DOCTYPE svg PUBLIC "-//W3C//DTD SVG 1.1//EN" "http://www.w3.org/Graphics/SVG/1.1/DTD/svg11.dtd"><svg t="1538549166640" class="icon" style="" viewBox="0 0 1024 1024" version="1.1" xmlns="http://www.w3.org/2000/svg" p-id="14476" xmlns:xlink="http://www.w3.org/1999/xlink" width="128" height="128"><defs><style type="text/css"></style></defs><path d="M948.174 914.434h-826.937v-843.314c0-24.508-19.433-44.386-43.405-44.386-23.963 0-43.394 19.876-43.394 44.386v887.7c0 24.529 19.433 44.385 43.394 44.385h870.339c23.971 0 43.405-19.854 43.405-44.385-0.001-24.514-19.437-44.385-43.406-44.385v0z" p-id="14477"></path><path d="M234.867 883.861h100.871v-216.64h-100.871v216.64zM403.011 883.861h100.878v-318.149h-100.878v318.149zM591.343 883.861h100.871v-399.409h-100.871v399.409zM772.912 883.861h100.871v-514.41h-100.871v514.41zM862.67 274.673l39.763-227.522-226.117 51.001 69.747 66.101-196.566 205.694-97.358-87.887-281.607 290.608 41.165 40.298-0.14-0.037 243.185-250.947 97.666 88.128 235.479-246.265 74.77 70.817z" p-id="14478"></path></svg>