<?xml version="1.0" standalone="no"?><!DOCTYPE svg PUBLIC "-//W3C//DTD SVG 1.1//EN" "http://www.w3.org/Graphics/SVG/1.1/DTD/svg11.dtd"><svg t="1538447687881" class="icon" style="" viewBox="0 0 1024 1024" version="1.1" xmlns="http://www.w3.org/2000/svg" p-id="2450" xmlns:xlink="http://www.w3.org/1999/xlink" width="200" height="200"><defs><style type="text/css"></style></defs><path d="M10.099009 4.89959c0 336.239997 0 672.086022 0 1007.811296 336.204182 0 672.050206 0 1007.821529 0 0-336.128457 0-671.854754 0-1007.811296C681.927157 4.89959 346.20086 4.89959 10.099009 4.89959zM956.552865 951.347307c-294.859541 0-589.792761 0-885.086184 0 0-212.3125 0-424.746774 0-637.573997 295.191092 0 590.003562 0 885.086184 0C956.552865 526.317077 956.552865 738.631624 956.552865 951.347307zM956.583564 251.916497c-295.043736 0-589.850066 0-885.066741 0 0-61.669548 0-123.424031 0-185.531554 294.811446 0 589.738525 0 885.066741 0C956.583564 128.388089 956.583564 190.021821 956.583564 251.916497z" p-id="2451"></path><path d="M376.398626 605.998861c-20.451798 0.201591-40.905642 0.082888-61.359486 0.105401-1.456165 0.001023-2.912329 0.217964-4.205788 0.322341 0 23.794939 0 47.079248 0 70.961168 22.031782 0 43.331901-0.115634 64.62895 0.084934 5.031597 0.047072 6.399757-1.940189 6.358825-6.646374-0.171915-19.770276-0.183172-39.543621 0.016373-59.312874C381.880477 607.297436 380.692419 605.955882 376.398626 605.998861z" p-id="2452"></path><path d="M731.449038 606.054119c-22.119787 0.070608-44.240597 0.037862-66.734914 0.037862 0 24.019043 0 47.414893 0 70.657246 0.698918 0.288572 0.99977 0.520863 1.300622 0.521886 21.623483 0.049119 43.24799 0.070608 64.871473 0.121773 3.563152 0.008186 4.66423-2.039449 4.662183-5.200442-0.011256-20.60427-0.034792-41.208541 0.027629-61.811788C735.586265 607.407953 734.605937 606.043886 731.449038 606.054119z" p-id="2453"></path><path d="M375.420345 747.316423c-16.356526 0.193405-32.717146 0.075725-49.075719 0.075725-5.065366 0-10.130731 0-15.529695 0 0 23.852244 0 47.134507 0 70.680782 0.562818 0.248663 0.859577 0.494257 1.157359 0.49528 21.979594 0.058328 43.960211 0.057305 65.938782 0.173962 3.854794 0.020466 3.856841-2.326998 3.852748-5.074575-0.030699-20.107967-0.113587-40.215934 0.055259-60.322877C381.860011 748.56281 379.925962 747.263212 375.420345 747.316423z" p-id="2454"></path><path d="M729.747279 747.325633c-15.151072 0.169869-30.306236 0.066515-45.459355 0.066515-6.42534 0-12.850679 0-19.620873 0 0 23.913643 0 47.311539 0 71.313186 22.615067 0 44.735877-0.027629 66.85771 0.027629 3.664459 0.00921 4.045129-2.169409 4.040013-5.025457-0.034792-20.261463-0.055259-40.522925 0.010233-60.783365C735.588311 748.821707 733.910089 747.279584 729.747279 747.325633z" p-id="2455"></path><path d="M377.476167 534.936385c3.807722 0.01842 4.343935-1.924839 4.323469-5.136997-0.10847-17.193591-0.051165-34.388205-0.050142-51.582819 0-4.206812 0-8.4126 0-12.936637-24.089651 0-47.590901 0-71.093175 0 0 23.223934 0 46.000684 0 69.121264 0.976234 0.209778 1.468444 0.408299 1.961678 0.409322C334.237387 534.850427 355.8578 534.829961 377.476167 534.936385z" p-id="2456"></path><path d="M731.61686 534.908756c3.645017 0.014326 3.971451-2.166339 3.962242-5.058203-0.061398-20.110013-0.103354-40.22105 0.033769-60.33004 0.024559-3.568269-1.133823-4.761444-4.685719-4.740978-21.473057 0.12075-42.947138 0.067538-64.420195 0.094144-0.626263 0.001023-1.252527 0.246617-1.943258 0.390903 0 23.168676 0 46.104037 0 68.931952 0.533143 0.26299 0.821715 0.529049 1.111311 0.530073C687.654602 534.794146 709.635219 534.823821 731.61686 534.908756z" p-id="2457"></path><path d="M492.533646 677.447123c16.686031-0.132006 33.373085-0.060375 50.060139-0.059352 4.889357 0 9.778714 0 14.978133 0 0-24.084535 0-47.592948 0-71.106478-23.220864 0-46.000684 0-69.121264 0-0.209778 0.981351-0.407276 1.475608-0.408299 1.969864-0.039909 21.623483-0.032746 43.24799-0.12075 64.871473C487.906256 676.447353 489.261113 677.472706 492.533646 677.447123z" p-id="2458"></path><path d="M487.955374 813.065893c0.001023 1.672082 0.170892 3.343141 0.277316 5.285377 23.604604 0 46.49494 0 69.344345 0 0-23.760147 0-47.159066 0-70.959122-2.095731 0-3.76986 0-5.445012 0-19.413142 0-38.829354 0.168846-58.238402-0.119727-4.809539-0.071631-6.084579 1.406023-6.037507 6.021134C488.059751 773.216303 487.936955 793.142122 487.955374 813.065893z" p-id="2459"></path><path d="M557.74895 465.092667c-23.176862 0-46.090734 0-69.483514 0 0 23.352871 0 46.267766 0 69.408813 23.340591 0 46.356794 0 69.483514 0C557.74895 511.180332 557.74895 488.265436 557.74895 465.092667z" p-id="2460"></path></svg>