<?xml version="1.0" standalone="no"?><!DOCTYPE svg PUBLIC "-//W3C//DTD SVG 1.1//EN" "http://www.w3.org/Graphics/SVG/1.1/DTD/svg11.dtd"><svg t="1538463695656" class="icon" style="" viewBox="0 0 1024 1024" version="1.1" xmlns="http://www.w3.org/2000/svg" p-id="1933" xmlns:xlink="http://www.w3.org/1999/xlink" width="128" height="128"><defs><style type="text/css"></style></defs><path d="M875.5 147.1h-727c-46.6 0-84.5 37.9-84.5 84.5v428.5c0 46.6 37.9 84.5 84.5 84.5h239.1c-7.2 12.4-11.4 26.9-11.4 42.2v5.4c0 15.4 4.2 29.8 11.4 42.2h-98.3c-11.7 0-21.1 9.5-21.1 21.1 0 11.7 9.4 21.1 21.1 21.1H734.8c11.7-0.1 21.1-9.6 21-21.2-0.1-11.7-9.6-21.1-21.2-21h-98.3c7.2-12.4 11.4-26.9 11.4-42.2v-5.4c0-15.4-4.2-29.8-11.4-42.2h239.1c46.6 0 84.5-37.9 84.5-84.5V231.6c0.1-46.5-37.8-84.5-84.4-84.5z m-727 42.3h727c23.3 0 42.3 19 42.3 42.3V591H106.2V231.6c0-23.3 19-42.2 42.3-42.2z m457 597.5v5.4c0 23.3-19 42.3-42.3 42.3H460.7c-23.3 0-42.3-19-42.3-42.3v-5.4c0-23.1 18.6-41.9 41.7-42.2H563.6c23.1 0.2 41.9 19 41.9 42.2z m270-84.5h-727c-23.3 0-42.3-19-42.3-42.3v-26.9h811.5v26.9c0.1 23.4-18.9 42.3-42.2 42.3z" p-id="1934"></path></svg>